<mxfile host="app.diagrams.net" modified="2023-12-01T11:39:41.208Z" agent="Mozilla/5.0 (Windows NT 10.0; Win64; x64) AppleWebKit/537.36 (KHTML, like Gecko) Chrome/119.0.0.0 Safari/537.36" etag="LvjjkWTba67p_1BGqQEh" version="22.1.5" type="device">
  <diagram id="C5RBs43oDa-KdzZeNtuy" name="Page-1">
    <mxGraphModel dx="3267" dy="3691" grid="1" gridSize="10" guides="1" tooltips="1" connect="1" arrows="1" fold="1" page="1" pageScale="1" pageWidth="827" pageHeight="1169" math="0" shadow="0">
      <root>
        <mxCell id="WIyWlLk6GJQsqaUBKTNV-0" />
        <mxCell id="WIyWlLk6GJQsqaUBKTNV-1" parent="WIyWlLk6GJQsqaUBKTNV-0" />
        <mxCell id="k9ecfntfly3kaGO9GItZ-10" value="" style="endArrow=classic;html=1;rounded=0;" parent="WIyWlLk6GJQsqaUBKTNV-1" edge="1">
          <mxGeometry width="50" height="50" relative="1" as="geometry">
            <mxPoint x="667" y="-1440" as="sourcePoint" />
            <mxPoint x="667" y="-1380" as="targetPoint" />
          </mxGeometry>
        </mxCell>
        <mxCell id="LVA1VL4anGFoCZ9Vgksi-9" style="edgeStyle=orthogonalEdgeStyle;rounded=0;orthogonalLoop=1;jettySize=auto;html=1;entryX=1;entryY=0.5;entryDx=0;entryDy=0;" parent="WIyWlLk6GJQsqaUBKTNV-1" source="LVA1VL4anGFoCZ9Vgksi-0" target="LVA1VL4anGFoCZ9Vgksi-8" edge="1">
          <mxGeometry relative="1" as="geometry" />
        </mxCell>
        <mxCell id="LVA1VL4anGFoCZ9Vgksi-10" value="No" style="edgeLabel;html=1;align=center;verticalAlign=middle;resizable=0;points=[];" parent="LVA1VL4anGFoCZ9Vgksi-9" vertex="1" connectable="0">
          <mxGeometry x="-0.021" y="2" relative="1" as="geometry">
            <mxPoint as="offset" />
          </mxGeometry>
        </mxCell>
        <mxCell id="LVA1VL4anGFoCZ9Vgksi-19" style="edgeStyle=orthogonalEdgeStyle;rounded=0;orthogonalLoop=1;jettySize=auto;html=1;entryX=0.5;entryY=0;entryDx=0;entryDy=0;" parent="WIyWlLk6GJQsqaUBKTNV-1" source="LVA1VL4anGFoCZ9Vgksi-0" target="LVA1VL4anGFoCZ9Vgksi-18" edge="1">
          <mxGeometry relative="1" as="geometry" />
        </mxCell>
        <mxCell id="LVA1VL4anGFoCZ9Vgksi-20" value="Yes" style="edgeLabel;html=1;align=center;verticalAlign=middle;resizable=0;points=[];" parent="LVA1VL4anGFoCZ9Vgksi-19" vertex="1" connectable="0">
          <mxGeometry x="-0.2988" y="-1" relative="1" as="geometry">
            <mxPoint as="offset" />
          </mxGeometry>
        </mxCell>
        <mxCell id="LVA1VL4anGFoCZ9Vgksi-58" style="edgeStyle=orthogonalEdgeStyle;rounded=0;orthogonalLoop=1;jettySize=auto;html=1;entryX=0;entryY=0.5;entryDx=0;entryDy=0;" parent="WIyWlLk6GJQsqaUBKTNV-1" source="LVA1VL4anGFoCZ9Vgksi-0" target="LVA1VL4anGFoCZ9Vgksi-26" edge="1">
          <mxGeometry relative="1" as="geometry" />
        </mxCell>
        <mxCell id="LVA1VL4anGFoCZ9Vgksi-59" value="yes" style="edgeLabel;html=1;align=center;verticalAlign=middle;resizable=0;points=[];" parent="LVA1VL4anGFoCZ9Vgksi-58" vertex="1" connectable="0">
          <mxGeometry x="-0.7075" relative="1" as="geometry">
            <mxPoint as="offset" />
          </mxGeometry>
        </mxCell>
        <mxCell id="LVA1VL4anGFoCZ9Vgksi-0" value="Is User Logged In?" style="rhombus;whiteSpace=wrap;html=1;fillColor=#d5e8d4;strokeColor=#82b366;" parent="WIyWlLk6GJQsqaUBKTNV-1" vertex="1">
          <mxGeometry x="610" y="-1220" width="120" height="120" as="geometry" />
        </mxCell>
        <mxCell id="LVA1VL4anGFoCZ9Vgksi-1" value="Landing" style="whiteSpace=wrap;html=1;aspect=fixed;fillColor=#e1d5e7;strokeColor=#9673a6;" parent="WIyWlLk6GJQsqaUBKTNV-1" vertex="1">
          <mxGeometry x="630" y="-1520" width="80" height="80" as="geometry" />
        </mxCell>
        <mxCell id="LVA1VL4anGFoCZ9Vgksi-3" value="Browse Existing Templates&lt;br&gt;(Home)" style="whiteSpace=wrap;html=1;aspect=fixed;fillColor=#e1d5e7;strokeColor=#9673a6;" parent="WIyWlLk6GJQsqaUBKTNV-1" vertex="1">
          <mxGeometry x="630" y="-1380" width="80" height="80" as="geometry" />
        </mxCell>
        <mxCell id="LVA1VL4anGFoCZ9Vgksi-6" style="edgeStyle=orthogonalEdgeStyle;rounded=0;orthogonalLoop=1;jettySize=auto;html=1;entryX=0.5;entryY=0;entryDx=0;entryDy=0;" parent="WIyWlLk6GJQsqaUBKTNV-1" target="LVA1VL4anGFoCZ9Vgksi-1" edge="1">
          <mxGeometry relative="1" as="geometry">
            <mxPoint x="670" y="-1580.0000000000002" as="sourcePoint" />
          </mxGeometry>
        </mxCell>
        <mxCell id="LVA1VL4anGFoCZ9Vgksi-7" style="edgeStyle=orthogonalEdgeStyle;rounded=0;orthogonalLoop=1;jettySize=auto;html=1;entryX=0.5;entryY=0;entryDx=0;entryDy=0;" parent="WIyWlLk6GJQsqaUBKTNV-1" source="LVA1VL4anGFoCZ9Vgksi-3" target="LVA1VL4anGFoCZ9Vgksi-0" edge="1">
          <mxGeometry relative="1" as="geometry" />
        </mxCell>
        <mxCell id="LVA1VL4anGFoCZ9Vgksi-12" style="edgeStyle=orthogonalEdgeStyle;rounded=0;orthogonalLoop=1;jettySize=auto;html=1;entryX=1;entryY=0.5;entryDx=0;entryDy=0;" parent="WIyWlLk6GJQsqaUBKTNV-1" source="LVA1VL4anGFoCZ9Vgksi-8" target="LVA1VL4anGFoCZ9Vgksi-11" edge="1">
          <mxGeometry relative="1" as="geometry" />
        </mxCell>
        <mxCell id="LVA1VL4anGFoCZ9Vgksi-8" value="Login" style="whiteSpace=wrap;html=1;aspect=fixed;fillColor=#e1d5e7;strokeColor=#9673a6;" parent="WIyWlLk6GJQsqaUBKTNV-1" vertex="1">
          <mxGeometry x="280" y="-1360" width="80" height="80" as="geometry" />
        </mxCell>
        <mxCell id="LVA1VL4anGFoCZ9Vgksi-15" style="edgeStyle=orthogonalEdgeStyle;rounded=0;orthogonalLoop=1;jettySize=auto;html=1;entryX=0.5;entryY=1;entryDx=0;entryDy=0;exitX=0.5;exitY=0.211;exitDx=0;exitDy=0;exitPerimeter=0;" parent="WIyWlLk6GJQsqaUBKTNV-1" source="LVA1VL4anGFoCZ9Vgksi-11" target="LVA1VL4anGFoCZ9Vgksi-13" edge="1">
          <mxGeometry relative="1" as="geometry" />
        </mxCell>
        <mxCell id="LVA1VL4anGFoCZ9Vgksi-11" value="User Inputs Data" style="html=1;strokeWidth=2;shape=manualInput;whiteSpace=wrap;rounded=1;size=26;arcSize=11;fillColor=#fff2cc;strokeColor=#d6b656;" parent="WIyWlLk6GJQsqaUBKTNV-1" vertex="1">
          <mxGeometry x="80" y="-1350" width="100" height="60" as="geometry" />
        </mxCell>
        <mxCell id="LVA1VL4anGFoCZ9Vgksi-16" style="edgeStyle=orthogonalEdgeStyle;rounded=0;orthogonalLoop=1;jettySize=auto;html=1;entryX=0.5;entryY=0;entryDx=0;entryDy=0;" parent="WIyWlLk6GJQsqaUBKTNV-1" source="LVA1VL4anGFoCZ9Vgksi-13" target="LVA1VL4anGFoCZ9Vgksi-8" edge="1">
          <mxGeometry relative="1" as="geometry" />
        </mxCell>
        <mxCell id="LVA1VL4anGFoCZ9Vgksi-17" value="No" style="edgeLabel;html=1;align=center;verticalAlign=middle;resizable=0;points=[];" parent="LVA1VL4anGFoCZ9Vgksi-16" vertex="1" connectable="0">
          <mxGeometry x="-0.25" relative="1" as="geometry">
            <mxPoint as="offset" />
          </mxGeometry>
        </mxCell>
        <mxCell id="LVA1VL4anGFoCZ9Vgksi-33" style="edgeStyle=orthogonalEdgeStyle;rounded=0;orthogonalLoop=1;jettySize=auto;html=1;entryX=0;entryY=0.25;entryDx=0;entryDy=0;" parent="WIyWlLk6GJQsqaUBKTNV-1" source="LVA1VL4anGFoCZ9Vgksi-13" target="LVA1VL4anGFoCZ9Vgksi-3" edge="1">
          <mxGeometry relative="1" as="geometry">
            <mxPoint x="580" y="-1030" as="targetPoint" />
            <Array as="points">
              <mxPoint x="130" y="-1600" />
              <mxPoint x="580" y="-1600" />
              <mxPoint x="580" y="-1360" />
            </Array>
          </mxGeometry>
        </mxCell>
        <mxCell id="LVA1VL4anGFoCZ9Vgksi-35" value="Yes" style="edgeLabel;html=1;align=center;verticalAlign=middle;resizable=0;points=[];" parent="LVA1VL4anGFoCZ9Vgksi-33" vertex="1" connectable="0">
          <mxGeometry x="-0.4454" relative="1" as="geometry">
            <mxPoint as="offset" />
          </mxGeometry>
        </mxCell>
        <mxCell id="LVA1VL4anGFoCZ9Vgksi-13" value="Is Data Valid?" style="rhombus;whiteSpace=wrap;html=1;fillColor=#d5e8d4;strokeColor=#82b366;" parent="WIyWlLk6GJQsqaUBKTNV-1" vertex="1">
          <mxGeometry x="80" y="-1550" width="100" height="100" as="geometry" />
        </mxCell>
        <mxCell id="LVA1VL4anGFoCZ9Vgksi-22" style="edgeStyle=orthogonalEdgeStyle;rounded=0;orthogonalLoop=1;jettySize=auto;html=1;entryX=0.975;entryY=0.648;entryDx=0;entryDy=0;entryPerimeter=0;" parent="WIyWlLk6GJQsqaUBKTNV-1" source="LVA1VL4anGFoCZ9Vgksi-18" target="LVA1VL4anGFoCZ9Vgksi-21" edge="1">
          <mxGeometry relative="1" as="geometry">
            <Array as="points">
              <mxPoint x="560" y="-988" />
              <mxPoint x="560" y="-988" />
            </Array>
          </mxGeometry>
        </mxCell>
        <mxCell id="LVA1VL4anGFoCZ9Vgksi-80" style="edgeStyle=orthogonalEdgeStyle;rounded=0;orthogonalLoop=1;jettySize=auto;html=1;entryX=0;entryY=0.5;entryDx=0;entryDy=0;" parent="WIyWlLk6GJQsqaUBKTNV-1" source="LVA1VL4anGFoCZ9Vgksi-18" target="LVA1VL4anGFoCZ9Vgksi-79" edge="1">
          <mxGeometry relative="1" as="geometry" />
        </mxCell>
        <mxCell id="LVA1VL4anGFoCZ9Vgksi-99" style="edgeStyle=orthogonalEdgeStyle;orthogonalLoop=1;jettySize=auto;html=1;rounded=0;dashed=1;entryX=0.5;entryY=0;entryDx=0;entryDy=0;entryPerimeter=0;fillColor=#e6d0de;gradientColor=#d5739d;strokeColor=#996185;" parent="WIyWlLk6GJQsqaUBKTNV-1" source="LVA1VL4anGFoCZ9Vgksi-18" edge="1" target="LVA1VL4anGFoCZ9Vgksi-100">
          <mxGeometry relative="1" as="geometry">
            <mxPoint x="740" y="-460" as="targetPoint" />
            <Array as="points">
              <mxPoint x="571" y="-950" />
              <mxPoint x="571" y="-730" />
              <mxPoint x="630" y="-730" />
            </Array>
          </mxGeometry>
        </mxCell>
        <mxCell id="LVA1VL4anGFoCZ9Vgksi-18" value="Print Service" style="whiteSpace=wrap;html=1;aspect=fixed;fillColor=#e1d5e7;strokeColor=#9673a6;" parent="WIyWlLk6GJQsqaUBKTNV-1" vertex="1">
          <mxGeometry x="630" y="-1020" width="80" height="80" as="geometry" />
        </mxCell>
        <mxCell id="LVA1VL4anGFoCZ9Vgksi-21" value="Create Community Template" style="whiteSpace=wrap;html=1;aspect=fixed;fillColor=#e1d5e7;strokeColor=#9673a6;" parent="WIyWlLk6GJQsqaUBKTNV-1" vertex="1">
          <mxGeometry x="374" y="-1040" width="80" height="80" as="geometry" />
        </mxCell>
        <mxCell id="LVA1VL4anGFoCZ9Vgksi-25" value="Checkout" style="whiteSpace=wrap;html=1;aspect=fixed;fillColor=#e1d5e7;strokeColor=#9673a6;" parent="WIyWlLk6GJQsqaUBKTNV-1" vertex="1">
          <mxGeometry x="860" y="-840" width="80" height="80" as="geometry" />
        </mxCell>
        <mxCell id="LVA1VL4anGFoCZ9Vgksi-66" style="edgeStyle=orthogonalEdgeStyle;rounded=0;orthogonalLoop=1;jettySize=auto;html=1;entryX=0.5;entryY=1;entryDx=0;entryDy=0;" parent="WIyWlLk6GJQsqaUBKTNV-1" source="LVA1VL4anGFoCZ9Vgksi-26" target="LVA1VL4anGFoCZ9Vgksi-65" edge="1">
          <mxGeometry relative="1" as="geometry" />
        </mxCell>
        <mxCell id="LVA1VL4anGFoCZ9Vgksi-26" value="Profile" style="whiteSpace=wrap;html=1;aspect=fixed;fillColor=#e1d5e7;strokeColor=#9673a6;" parent="WIyWlLk6GJQsqaUBKTNV-1" vertex="1">
          <mxGeometry x="848" y="-1300" width="80" height="80" as="geometry" />
        </mxCell>
        <mxCell id="LVA1VL4anGFoCZ9Vgksi-27" value="My Orders" style="whiteSpace=wrap;html=1;aspect=fixed;fillColor=#e1d5e7;strokeColor=#9673a6;" parent="WIyWlLk6GJQsqaUBKTNV-1" vertex="1">
          <mxGeometry x="1028.02" y="-1470" width="80" height="80" as="geometry" />
        </mxCell>
        <mxCell id="LVA1VL4anGFoCZ9Vgksi-37" value="Username,&lt;br&gt;Password" style="strokeWidth=2;html=1;shape=mxgraph.flowchart.annotation_2;align=left;labelPosition=right;pointerEvents=1;" parent="WIyWlLk6GJQsqaUBKTNV-1" vertex="1">
          <mxGeometry x="204" y="-1489" width="50" height="100" as="geometry" />
        </mxCell>
        <mxCell id="LVA1VL4anGFoCZ9Vgksi-39" style="edgeStyle=orthogonalEdgeStyle;rounded=0;orthogonalLoop=1;jettySize=auto;html=1;exitX=0.799;exitY=0.092;exitDx=0;exitDy=0;exitPerimeter=0;" parent="WIyWlLk6GJQsqaUBKTNV-1" source="LVA1VL4anGFoCZ9Vgksi-11" edge="1">
          <mxGeometry relative="1" as="geometry">
            <mxPoint x="200" y="-1439" as="targetPoint" />
            <Array as="points">
              <mxPoint x="160" y="-1370" />
              <mxPoint x="190" y="-1370" />
              <mxPoint x="190" y="-1439" />
            </Array>
          </mxGeometry>
        </mxCell>
        <mxCell id="LVA1VL4anGFoCZ9Vgksi-44" style="edgeStyle=orthogonalEdgeStyle;rounded=0;orthogonalLoop=1;jettySize=auto;html=1;entryX=1;entryY=0.5;entryDx=0;entryDy=0;" parent="WIyWlLk6GJQsqaUBKTNV-1" source="LVA1VL4anGFoCZ9Vgksi-42" target="LVA1VL4anGFoCZ9Vgksi-43" edge="1">
          <mxGeometry relative="1" as="geometry" />
        </mxCell>
        <mxCell id="LVA1VL4anGFoCZ9Vgksi-42" value="Registration" style="whiteSpace=wrap;html=1;aspect=fixed;fillColor=#e1d5e7;strokeColor=#9673a6;" parent="WIyWlLk6GJQsqaUBKTNV-1" vertex="1">
          <mxGeometry x="-180" y="-1280" width="80" height="80" as="geometry" />
        </mxCell>
        <mxCell id="LVA1VL4anGFoCZ9Vgksi-45" style="edgeStyle=orthogonalEdgeStyle;rounded=0;orthogonalLoop=1;jettySize=auto;html=1;exitX=0.497;exitY=0.199;exitDx=0;exitDy=0;exitPerimeter=0;" parent="WIyWlLk6GJQsqaUBKTNV-1" source="LVA1VL4anGFoCZ9Vgksi-43" edge="1">
          <mxGeometry relative="1" as="geometry">
            <mxPoint x="-380" y="-1370" as="targetPoint" />
          </mxGeometry>
        </mxCell>
        <mxCell id="LVA1VL4anGFoCZ9Vgksi-50" style="edgeStyle=orthogonalEdgeStyle;rounded=0;orthogonalLoop=1;jettySize=auto;html=1;exitX=0.798;exitY=0.095;exitDx=0;exitDy=0;exitPerimeter=0;" parent="WIyWlLk6GJQsqaUBKTNV-1" source="LVA1VL4anGFoCZ9Vgksi-43" edge="1">
          <mxGeometry relative="1" as="geometry">
            <mxPoint x="-230" y="-1410" as="targetPoint" />
            <Array as="points">
              <mxPoint x="-350" y="-1300" />
              <mxPoint x="-250" y="-1300" />
            </Array>
          </mxGeometry>
        </mxCell>
        <mxCell id="LVA1VL4anGFoCZ9Vgksi-43" value="User Inputs Data" style="html=1;strokeWidth=2;shape=manualInput;whiteSpace=wrap;rounded=1;size=26;arcSize=11;fillColor=#fff2cc;strokeColor=#d6b656;" parent="WIyWlLk6GJQsqaUBKTNV-1" vertex="1">
          <mxGeometry x="-430" y="-1270" width="100" height="60" as="geometry" />
        </mxCell>
        <mxCell id="LVA1VL4anGFoCZ9Vgksi-48" style="edgeStyle=orthogonalEdgeStyle;rounded=0;orthogonalLoop=1;jettySize=auto;html=1;entryX=0.5;entryY=1;entryDx=0;entryDy=0;" parent="WIyWlLk6GJQsqaUBKTNV-1" source="LVA1VL4anGFoCZ9Vgksi-46" target="LVA1VL4anGFoCZ9Vgksi-47" edge="1">
          <mxGeometry relative="1" as="geometry" />
        </mxCell>
        <mxCell id="LVA1VL4anGFoCZ9Vgksi-49" value="No" style="edgeLabel;html=1;align=center;verticalAlign=middle;resizable=0;points=[];" parent="LVA1VL4anGFoCZ9Vgksi-48" vertex="1" connectable="0">
          <mxGeometry x="-0.0148" y="-1" relative="1" as="geometry">
            <mxPoint as="offset" />
          </mxGeometry>
        </mxCell>
        <mxCell id="LVA1VL4anGFoCZ9Vgksi-56" style="edgeStyle=orthogonalEdgeStyle;rounded=0;orthogonalLoop=1;jettySize=auto;html=1;entryX=1;entryY=0.25;entryDx=0;entryDy=0;" parent="WIyWlLk6GJQsqaUBKTNV-1" source="LVA1VL4anGFoCZ9Vgksi-46" target="LVA1VL4anGFoCZ9Vgksi-8" edge="1">
          <mxGeometry relative="1" as="geometry">
            <Array as="points">
              <mxPoint x="-300" y="-1420" />
              <mxPoint x="-300" y="-1570" />
              <mxPoint x="380" y="-1570" />
              <mxPoint x="380" y="-1340" />
            </Array>
          </mxGeometry>
        </mxCell>
        <mxCell id="LVA1VL4anGFoCZ9Vgksi-57" value="yes" style="edgeLabel;html=1;align=center;verticalAlign=middle;resizable=0;points=[];" parent="LVA1VL4anGFoCZ9Vgksi-56" vertex="1" connectable="0">
          <mxGeometry x="-0.4937" y="1" relative="1" as="geometry">
            <mxPoint as="offset" />
          </mxGeometry>
        </mxCell>
        <mxCell id="LVA1VL4anGFoCZ9Vgksi-46" value="Does User Exist?" style="rhombus;whiteSpace=wrap;html=1;fillColor=#d5e8d4;strokeColor=#82b366;" parent="WIyWlLk6GJQsqaUBKTNV-1" vertex="1">
          <mxGeometry x="-430" y="-1470" width="100" height="100" as="geometry" />
        </mxCell>
        <mxCell id="LVA1VL4anGFoCZ9Vgksi-52" style="edgeStyle=orthogonalEdgeStyle;rounded=0;orthogonalLoop=1;jettySize=auto;html=1;entryX=1;entryY=0.25;entryDx=0;entryDy=0;" parent="WIyWlLk6GJQsqaUBKTNV-1" source="LVA1VL4anGFoCZ9Vgksi-47" target="LVA1VL4anGFoCZ9Vgksi-42" edge="1">
          <mxGeometry relative="1" as="geometry">
            <Array as="points">
              <mxPoint x="-40" y="-1610" />
              <mxPoint x="-40" y="-1260" />
            </Array>
          </mxGeometry>
        </mxCell>
        <mxCell id="LVA1VL4anGFoCZ9Vgksi-53" value="No" style="edgeLabel;html=1;align=center;verticalAlign=middle;resizable=0;points=[];" parent="LVA1VL4anGFoCZ9Vgksi-52" vertex="1" connectable="0">
          <mxGeometry x="-0.6282" y="3" relative="1" as="geometry">
            <mxPoint as="offset" />
          </mxGeometry>
        </mxCell>
        <mxCell id="LVA1VL4anGFoCZ9Vgksi-47" value="Is Data Valid?" style="rhombus;whiteSpace=wrap;html=1;fillColor=#d5e8d4;strokeColor=#82b366;" parent="WIyWlLk6GJQsqaUBKTNV-1" vertex="1">
          <mxGeometry x="-430" y="-1660" width="100" height="100" as="geometry" />
        </mxCell>
        <mxCell id="LVA1VL4anGFoCZ9Vgksi-51" value="First Name,&lt;br&gt;Last Name,&lt;br&gt;Email,&lt;br&gt;Telephone Number&lt;br&gt;Address,&lt;br&gt;Postal Code,&lt;br&gt;Username,&lt;br&gt;Password" style="strokeWidth=2;html=1;shape=mxgraph.flowchart.annotation_2;align=left;labelPosition=right;pointerEvents=1;" parent="WIyWlLk6GJQsqaUBKTNV-1" vertex="1">
          <mxGeometry x="-220" y="-1460" width="50" height="100" as="geometry" />
        </mxCell>
        <mxCell id="LVA1VL4anGFoCZ9Vgksi-54" style="edgeStyle=orthogonalEdgeStyle;rounded=0;orthogonalLoop=1;jettySize=auto;html=1;entryX=0;entryY=0.75;entryDx=0;entryDy=0;" parent="WIyWlLk6GJQsqaUBKTNV-1" source="LVA1VL4anGFoCZ9Vgksi-47" target="LVA1VL4anGFoCZ9Vgksi-3" edge="1">
          <mxGeometry relative="1" as="geometry">
            <Array as="points">
              <mxPoint x="-490" y="-1610" />
              <mxPoint x="-490" y="-1180" />
              <mxPoint x="590" y="-1180" />
              <mxPoint x="590" y="-1320" />
            </Array>
          </mxGeometry>
        </mxCell>
        <mxCell id="LVA1VL4anGFoCZ9Vgksi-55" value="Yes" style="edgeLabel;html=1;align=center;verticalAlign=middle;resizable=0;points=[];" parent="LVA1VL4anGFoCZ9Vgksi-54" vertex="1" connectable="0">
          <mxGeometry x="0.3881" y="-1" relative="1" as="geometry">
            <mxPoint x="1" as="offset" />
          </mxGeometry>
        </mxCell>
        <mxCell id="LVA1VL4anGFoCZ9Vgksi-61" style="edgeStyle=orthogonalEdgeStyle;rounded=0;orthogonalLoop=1;jettySize=auto;html=1;entryX=0;entryY=0.5;entryDx=0;entryDy=0;" parent="WIyWlLk6GJQsqaUBKTNV-1" source="LVA1VL4anGFoCZ9Vgksi-26" target="LVA1VL4anGFoCZ9Vgksi-63" edge="1">
          <mxGeometry relative="1" as="geometry">
            <mxPoint x="1024.5200000000004" y="-1260" as="targetPoint" />
          </mxGeometry>
        </mxCell>
        <mxCell id="LVA1VL4anGFoCZ9Vgksi-62" value="Start" style="strokeWidth=2;html=1;shape=mxgraph.flowchart.start_1;whiteSpace=wrap;" parent="WIyWlLk6GJQsqaUBKTNV-1" vertex="1">
          <mxGeometry x="620" y="-1640" width="100" height="60" as="geometry" />
        </mxCell>
        <mxCell id="LVA1VL4anGFoCZ9Vgksi-71" style="edgeStyle=orthogonalEdgeStyle;rounded=0;orthogonalLoop=1;jettySize=auto;html=1;entryX=0;entryY=0.5;entryDx=0;entryDy=0;entryPerimeter=0;exitX=0.665;exitY=0.132;exitDx=0;exitDy=0;exitPerimeter=0;" parent="WIyWlLk6GJQsqaUBKTNV-1" source="LVA1VL4anGFoCZ9Vgksi-63" target="LVA1VL4anGFoCZ9Vgksi-72" edge="1">
          <mxGeometry relative="1" as="geometry">
            <mxPoint x="1290" y="-1420" as="targetPoint" />
            <Array as="points">
              <mxPoint x="1260" y="-1325" />
              <mxPoint x="1302" y="-1325" />
              <mxPoint x="1302" y="-1410" />
            </Array>
          </mxGeometry>
        </mxCell>
        <mxCell id="LVA1VL4anGFoCZ9Vgksi-74" style="edgeStyle=orthogonalEdgeStyle;rounded=0;orthogonalLoop=1;jettySize=auto;html=1;" parent="WIyWlLk6GJQsqaUBKTNV-1" source="LVA1VL4anGFoCZ9Vgksi-63" target="LVA1VL4anGFoCZ9Vgksi-73" edge="1">
          <mxGeometry relative="1" as="geometry" />
        </mxCell>
        <mxCell id="LVA1VL4anGFoCZ9Vgksi-63" value="User input data," style="html=1;strokeWidth=2;shape=manualInput;whiteSpace=wrap;rounded=1;size=26;arcSize=11;fillColor=#fff2cc;strokeColor=#d6b656;" parent="WIyWlLk6GJQsqaUBKTNV-1" vertex="1">
          <mxGeometry x="1193" y="-1290" width="100" height="60" as="geometry" />
        </mxCell>
        <mxCell id="LVA1VL4anGFoCZ9Vgksi-67" style="edgeStyle=orthogonalEdgeStyle;rounded=0;orthogonalLoop=1;jettySize=auto;html=1;entryX=0;entryY=0.25;entryDx=0;entryDy=0;" parent="WIyWlLk6GJQsqaUBKTNV-1" source="LVA1VL4anGFoCZ9Vgksi-65" target="LVA1VL4anGFoCZ9Vgksi-26" edge="1">
          <mxGeometry relative="1" as="geometry">
            <Array as="points">
              <mxPoint x="800" y="-1440" />
              <mxPoint x="800" y="-1280" />
            </Array>
          </mxGeometry>
        </mxCell>
        <mxCell id="LVA1VL4anGFoCZ9Vgksi-68" value="No" style="edgeLabel;html=1;align=center;verticalAlign=middle;resizable=0;points=[];" parent="LVA1VL4anGFoCZ9Vgksi-67" vertex="1" connectable="0">
          <mxGeometry x="-0.7572" y="-1" relative="1" as="geometry">
            <mxPoint as="offset" />
          </mxGeometry>
        </mxCell>
        <mxCell id="LVA1VL4anGFoCZ9Vgksi-65" value="Does user have orders?" style="rhombus;whiteSpace=wrap;html=1;fillColor=#d5e8d4;strokeColor=#82b366;" parent="WIyWlLk6GJQsqaUBKTNV-1" vertex="1">
          <mxGeometry x="832" y="-1480" width="112" height="110" as="geometry" />
        </mxCell>
        <mxCell id="LVA1VL4anGFoCZ9Vgksi-69" style="edgeStyle=orthogonalEdgeStyle;rounded=0;orthogonalLoop=1;jettySize=auto;html=1;entryX=-0.003;entryY=0.56;entryDx=0;entryDy=0;entryPerimeter=0;" parent="WIyWlLk6GJQsqaUBKTNV-1" source="LVA1VL4anGFoCZ9Vgksi-65" target="LVA1VL4anGFoCZ9Vgksi-27" edge="1">
          <mxGeometry relative="1" as="geometry" />
        </mxCell>
        <mxCell id="LVA1VL4anGFoCZ9Vgksi-70" value="Yes" style="edgeLabel;html=1;align=center;verticalAlign=middle;resizable=0;points=[];" parent="LVA1VL4anGFoCZ9Vgksi-69" vertex="1" connectable="0">
          <mxGeometry x="0.0023" y="-1" relative="1" as="geometry">
            <mxPoint as="offset" />
          </mxGeometry>
        </mxCell>
        <mxCell id="LVA1VL4anGFoCZ9Vgksi-72" value="First Name,&lt;br&gt;Last Name,&lt;br&gt;Email,&lt;br&gt;Telephone Number,&lt;br&gt;Address,&lt;br&gt;Postal Code,&lt;br&gt;Username,&lt;br&gt;Password" style="strokeWidth=2;html=1;shape=mxgraph.flowchart.annotation_2;align=left;labelPosition=right;pointerEvents=1;" parent="WIyWlLk6GJQsqaUBKTNV-1" vertex="1">
          <mxGeometry x="1322" y="-1460" width="50" height="100" as="geometry" />
        </mxCell>
        <mxCell id="LVA1VL4anGFoCZ9Vgksi-73" value="Is Data Valid?" style="rhombus;whiteSpace=wrap;html=1;fillColor=#d5e8d4;strokeColor=#82b366;" parent="WIyWlLk6GJQsqaUBKTNV-1" vertex="1">
          <mxGeometry x="1192.12" y="-1150" width="100" height="100" as="geometry" />
        </mxCell>
        <mxCell id="LVA1VL4anGFoCZ9Vgksi-75" style="edgeStyle=orthogonalEdgeStyle;rounded=0;orthogonalLoop=1;jettySize=auto;html=1;entryX=1.008;entryY=0.539;entryDx=0;entryDy=0;entryPerimeter=0;" parent="WIyWlLk6GJQsqaUBKTNV-1" source="LVA1VL4anGFoCZ9Vgksi-73" target="LVA1VL4anGFoCZ9Vgksi-63" edge="1">
          <mxGeometry relative="1" as="geometry">
            <Array as="points">
              <mxPoint x="1340" y="-1100" />
              <mxPoint x="1340" y="-1258" />
            </Array>
          </mxGeometry>
        </mxCell>
        <mxCell id="LVA1VL4anGFoCZ9Vgksi-76" value="No" style="edgeLabel;html=1;align=center;verticalAlign=middle;resizable=0;points=[];" parent="LVA1VL4anGFoCZ9Vgksi-75" vertex="1" connectable="0">
          <mxGeometry x="0.7822" y="1" relative="1" as="geometry">
            <mxPoint as="offset" />
          </mxGeometry>
        </mxCell>
        <mxCell id="LVA1VL4anGFoCZ9Vgksi-77" style="edgeStyle=orthogonalEdgeStyle;rounded=0;orthogonalLoop=1;jettySize=auto;html=1;entryX=0.698;entryY=1.006;entryDx=0;entryDy=0;entryPerimeter=0;" parent="WIyWlLk6GJQsqaUBKTNV-1" source="LVA1VL4anGFoCZ9Vgksi-73" target="LVA1VL4anGFoCZ9Vgksi-26" edge="1">
          <mxGeometry relative="1" as="geometry" />
        </mxCell>
        <mxCell id="LVA1VL4anGFoCZ9Vgksi-78" value="Yes" style="edgeLabel;html=1;align=center;verticalAlign=middle;resizable=0;points=[];" parent="LVA1VL4anGFoCZ9Vgksi-77" vertex="1" connectable="0">
          <mxGeometry x="-0.5043" y="-1" relative="1" as="geometry">
            <mxPoint as="offset" />
          </mxGeometry>
        </mxCell>
        <mxCell id="LVA1VL4anGFoCZ9Vgksi-81" style="edgeStyle=orthogonalEdgeStyle;rounded=0;orthogonalLoop=1;jettySize=auto;html=1;entryX=0.75;entryY=0;entryDx=0;entryDy=0;" parent="WIyWlLk6GJQsqaUBKTNV-1" source="LVA1VL4anGFoCZ9Vgksi-79" target="LVA1VL4anGFoCZ9Vgksi-25" edge="1">
          <mxGeometry relative="1" as="geometry" />
        </mxCell>
        <mxCell id="LVA1VL4anGFoCZ9Vgksi-82" value="Yes" style="edgeLabel;html=1;align=center;verticalAlign=middle;resizable=0;points=[];" parent="LVA1VL4anGFoCZ9Vgksi-81" vertex="1" connectable="0">
          <mxGeometry x="0.1" y="-1" relative="1" as="geometry">
            <mxPoint as="offset" />
          </mxGeometry>
        </mxCell>
        <mxCell id="LVA1VL4anGFoCZ9Vgksi-83" style="edgeStyle=orthogonalEdgeStyle;rounded=0;orthogonalLoop=1;jettySize=auto;html=1;entryX=1;entryY=0.25;entryDx=0;entryDy=0;" parent="WIyWlLk6GJQsqaUBKTNV-1" source="LVA1VL4anGFoCZ9Vgksi-79" target="LVA1VL4anGFoCZ9Vgksi-18" edge="1">
          <mxGeometry relative="1" as="geometry">
            <Array as="points">
              <mxPoint x="870" y="-1060" />
              <mxPoint x="775" y="-1060" />
              <mxPoint x="775" y="-1000" />
            </Array>
          </mxGeometry>
        </mxCell>
        <mxCell id="LVA1VL4anGFoCZ9Vgksi-84" value="No" style="edgeLabel;html=1;align=center;verticalAlign=middle;resizable=0;points=[];" parent="LVA1VL4anGFoCZ9Vgksi-83" vertex="1" connectable="0">
          <mxGeometry x="-0.2122" relative="1" as="geometry">
            <mxPoint as="offset" />
          </mxGeometry>
        </mxCell>
        <mxCell id="LVA1VL4anGFoCZ9Vgksi-79" value="Has user made&lt;br&gt;&amp;nbsp;a purchase?" style="rhombus;whiteSpace=wrap;html=1;fillColor=#d5e8d4;strokeColor=#82b366;" parent="WIyWlLk6GJQsqaUBKTNV-1" vertex="1">
          <mxGeometry x="820" y="-1030" width="100" height="100" as="geometry" />
        </mxCell>
        <mxCell id="LVA1VL4anGFoCZ9Vgksi-86" style="edgeStyle=orthogonalEdgeStyle;rounded=0;orthogonalLoop=1;jettySize=auto;html=1;entryX=0;entryY=0.5;entryDx=0;entryDy=0;dashed=1;" parent="WIyWlLk6GJQsqaUBKTNV-1" source="LVA1VL4anGFoCZ9Vgksi-85" target="LVA1VL4anGFoCZ9Vgksi-46" edge="1">
          <mxGeometry relative="1" as="geometry" />
        </mxCell>
        <mxCell id="LVA1VL4anGFoCZ9Vgksi-85" value="Users" style="strokeWidth=2;html=1;shape=mxgraph.flowchart.database;whiteSpace=wrap;fillColor=#dae8fc;strokeColor=#6c8ebf;" parent="WIyWlLk6GJQsqaUBKTNV-1" vertex="1">
          <mxGeometry x="-660" y="-1450" width="60" height="60" as="geometry" />
        </mxCell>
        <mxCell id="LVA1VL4anGFoCZ9Vgksi-87" value="Prints" style="strokeWidth=2;html=1;shape=mxgraph.flowchart.database;whiteSpace=wrap;fillColor=#dae8fc;strokeColor=#6c8ebf;" parent="WIyWlLk6GJQsqaUBKTNV-1" vertex="1">
          <mxGeometry x="1042" y="-1610" width="60" height="60" as="geometry" />
        </mxCell>
        <mxCell id="LVA1VL4anGFoCZ9Vgksi-88" style="edgeStyle=orthogonalEdgeStyle;rounded=0;orthogonalLoop=1;jettySize=auto;html=1;entryX=0.552;entryY=0.013;entryDx=0;entryDy=0;entryPerimeter=0;dashed=1;" parent="WIyWlLk6GJQsqaUBKTNV-1" source="LVA1VL4anGFoCZ9Vgksi-87" target="LVA1VL4anGFoCZ9Vgksi-27" edge="1">
          <mxGeometry relative="1" as="geometry" />
        </mxCell>
        <mxCell id="Kkr6p6qzVswcM8IEYo6j-0" style="edgeStyle=orthogonalEdgeStyle;rounded=0;orthogonalLoop=1;jettySize=auto;html=1;entryX=0;entryY=0.5;entryDx=0;entryDy=0;exitX=0.5;exitY=0;exitDx=0;exitDy=0;exitPerimeter=0;" parent="WIyWlLk6GJQsqaUBKTNV-1" source="LVA1VL4anGFoCZ9Vgksi-89" target="LVA1VL4anGFoCZ9Vgksi-3" edge="1">
          <mxGeometry relative="1" as="geometry">
            <Array as="points">
              <mxPoint x="-40" y="-1080" />
              <mxPoint x="540" y="-1080" />
              <mxPoint x="540" y="-1340" />
            </Array>
          </mxGeometry>
        </mxCell>
        <mxCell id="LVA1VL4anGFoCZ9Vgksi-89" value="Templates" style="strokeWidth=2;html=1;shape=mxgraph.flowchart.database;whiteSpace=wrap;fillColor=#dae8fc;strokeColor=#6c8ebf;" parent="WIyWlLk6GJQsqaUBKTNV-1" vertex="1">
          <mxGeometry x="-70" y="-1030" width="60" height="60" as="geometry" />
        </mxCell>
        <mxCell id="LVA1VL4anGFoCZ9Vgksi-91" style="edgeStyle=orthogonalEdgeStyle;rounded=0;orthogonalLoop=1;jettySize=auto;html=1;entryX=1;entryY=0.5;entryDx=0;entryDy=0;" parent="WIyWlLk6GJQsqaUBKTNV-1" source="LVA1VL4anGFoCZ9Vgksi-21" target="TZek9zEbQfjgXyomxSv3-2" edge="1">
          <mxGeometry relative="1" as="geometry">
            <Array as="points">
              <mxPoint x="390" y="-990" />
            </Array>
            <mxPoint x="350" y="-1030" as="targetPoint" />
          </mxGeometry>
        </mxCell>
        <mxCell id="LVA1VL4anGFoCZ9Vgksi-92" style="edgeStyle=orthogonalEdgeStyle;rounded=0;orthogonalLoop=1;jettySize=auto;html=1;entryX=0.5;entryY=1;entryDx=0;entryDy=0;entryPerimeter=0;dashed=1;" parent="WIyWlLk6GJQsqaUBKTNV-1" source="LVA1VL4anGFoCZ9Vgksi-42" target="LVA1VL4anGFoCZ9Vgksi-85" edge="1">
          <mxGeometry relative="1" as="geometry">
            <Array as="points">
              <mxPoint x="-140" y="-1160" />
              <mxPoint x="-630" y="-1160" />
            </Array>
          </mxGeometry>
        </mxCell>
        <mxCell id="LVA1VL4anGFoCZ9Vgksi-93" style="edgeStyle=orthogonalEdgeStyle;rounded=0;orthogonalLoop=1;jettySize=auto;html=1;entryX=1;entryY=0.5;entryDx=0;entryDy=0;entryPerimeter=0;" parent="WIyWlLk6GJQsqaUBKTNV-1" source="LVA1VL4anGFoCZ9Vgksi-25" target="LVA1VL4anGFoCZ9Vgksi-87" edge="1">
          <mxGeometry relative="1" as="geometry">
            <Array as="points">
              <mxPoint x="1160" y="-800" />
              <mxPoint x="1160" y="-1580" />
            </Array>
          </mxGeometry>
        </mxCell>
        <mxCell id="LVA1VL4anGFoCZ9Vgksi-96" style="edgeStyle=orthogonalEdgeStyle;rounded=0;orthogonalLoop=1;jettySize=auto;html=1;entryX=1;entryY=0.75;entryDx=0;entryDy=0;dashed=1;fillColor=#d5e8d4;gradientColor=#97d077;strokeColor=#82b366;" parent="WIyWlLk6GJQsqaUBKTNV-1" source="LVA1VL4anGFoCZ9Vgksi-94" target="LVA1VL4anGFoCZ9Vgksi-18" edge="1">
          <mxGeometry relative="1" as="geometry" />
        </mxCell>
        <mxCell id="LVA1VL4anGFoCZ9Vgksi-94" value="Comments" style="strokeWidth=2;html=1;shape=mxgraph.flowchart.database;whiteSpace=wrap;fillColor=#dae8fc;strokeColor=#6c8ebf;" parent="WIyWlLk6GJQsqaUBKTNV-1" vertex="1">
          <mxGeometry x="730" y="-640" width="60" height="60" as="geometry" />
        </mxCell>
        <mxCell id="TZek9zEbQfjgXyomxSv3-21" style="edgeStyle=orthogonalEdgeStyle;rounded=0;orthogonalLoop=1;jettySize=auto;html=1;entryX=0;entryY=0.5;entryDx=0;entryDy=0;fillColor=#e6d0de;gradientColor=#d5739d;strokeColor=#996185;" edge="1" parent="WIyWlLk6GJQsqaUBKTNV-1" source="LVA1VL4anGFoCZ9Vgksi-100" target="TZek9zEbQfjgXyomxSv3-17">
          <mxGeometry relative="1" as="geometry">
            <Array as="points">
              <mxPoint x="630" y="-440" />
            </Array>
          </mxGeometry>
        </mxCell>
        <mxCell id="LVA1VL4anGFoCZ9Vgksi-100" value="Reports" style="strokeWidth=2;html=1;shape=mxgraph.flowchart.database;whiteSpace=wrap;fillColor=#dae8fc;strokeColor=#6c8ebf;" parent="WIyWlLk6GJQsqaUBKTNV-1" vertex="1">
          <mxGeometry x="600" y="-570" width="60" height="60" as="geometry" />
        </mxCell>
        <mxCell id="LVA1VL4anGFoCZ9Vgksi-101" style="edgeStyle=orthogonalEdgeStyle;rounded=0;orthogonalLoop=1;jettySize=auto;html=1;dashed=1;fillColor=#d5e8d4;gradientColor=#97d077;strokeColor=#82b366;" parent="WIyWlLk6GJQsqaUBKTNV-1" source="LVA1VL4anGFoCZ9Vgksi-18" edge="1" target="TZek9zEbQfjgXyomxSv3-17">
          <mxGeometry relative="1" as="geometry">
            <mxPoint x="910" y="-640" as="targetPoint" />
            <Array as="points">
              <mxPoint x="820" y="-970" />
              <mxPoint x="820" y="-670" />
              <mxPoint x="910" y="-670" />
              <mxPoint x="910" y="-580" />
              <mxPoint x="860" y="-580" />
            </Array>
          </mxGeometry>
        </mxCell>
        <mxCell id="TZek9zEbQfjgXyomxSv3-0" style="edgeStyle=orthogonalEdgeStyle;rounded=0;orthogonalLoop=1;jettySize=auto;html=1;entryX=1;entryY=0.625;entryDx=0;entryDy=0;entryPerimeter=0;" edge="1" parent="WIyWlLk6GJQsqaUBKTNV-1">
          <mxGeometry relative="1" as="geometry">
            <mxPoint x="490" y="-1160" as="sourcePoint" />
            <mxPoint x="-100" y="-1230" as="targetPoint" />
            <Array as="points">
              <mxPoint x="-60" y="-1160" />
              <mxPoint x="-60" y="-1230" />
            </Array>
          </mxGeometry>
        </mxCell>
        <mxCell id="TZek9zEbQfjgXyomxSv3-1" value="No" style="edgeLabel;html=1;align=center;verticalAlign=middle;resizable=0;points=[];" vertex="1" connectable="0" parent="TZek9zEbQfjgXyomxSv3-0">
          <mxGeometry x="-0.021" y="2" relative="1" as="geometry">
            <mxPoint as="offset" />
          </mxGeometry>
        </mxCell>
        <mxCell id="TZek9zEbQfjgXyomxSv3-3" style="edgeStyle=orthogonalEdgeStyle;rounded=0;orthogonalLoop=1;jettySize=auto;html=1;entryX=1;entryY=0.5;entryDx=0;entryDy=0;" edge="1" parent="WIyWlLk6GJQsqaUBKTNV-1" source="TZek9zEbQfjgXyomxSv3-2" target="TZek9zEbQfjgXyomxSv3-11">
          <mxGeometry relative="1" as="geometry">
            <mxPoint x="190" y="-1020" as="targetPoint" />
          </mxGeometry>
        </mxCell>
        <mxCell id="TZek9zEbQfjgXyomxSv3-2" value="User Inputs Data" style="html=1;strokeWidth=2;shape=manualInput;whiteSpace=wrap;rounded=1;size=26;arcSize=11;fillColor=#fff2cc;strokeColor=#d6b656;" vertex="1" parent="WIyWlLk6GJQsqaUBKTNV-1">
          <mxGeometry x="154" y="-1020" width="100" height="60" as="geometry" />
        </mxCell>
        <mxCell id="TZek9zEbQfjgXyomxSv3-7" value="" style="strokeWidth=2;html=1;shape=mxgraph.flowchart.annotation_2;align=left;labelPosition=right;pointerEvents=1;rotation=-180;" vertex="1" parent="WIyWlLk6GJQsqaUBKTNV-1">
          <mxGeometry x="170" y="-875" width="50" height="100" as="geometry" />
        </mxCell>
        <mxCell id="TZek9zEbQfjgXyomxSv3-9" value="&lt;font style=&quot;font-size: 15px;&quot;&gt;Title&lt;br&gt;Theme&lt;br&gt;Description&lt;br&gt;File&lt;/font&gt;" style="text;html=1;align=center;verticalAlign=middle;resizable=0;points=[];autosize=1;strokeColor=none;fillColor=none;" vertex="1" parent="WIyWlLk6GJQsqaUBKTNV-1">
          <mxGeometry x="80" y="-870" width="100" height="90" as="geometry" />
        </mxCell>
        <mxCell id="TZek9zEbQfjgXyomxSv3-10" style="edgeStyle=orthogonalEdgeStyle;rounded=0;orthogonalLoop=1;jettySize=auto;html=1;entryX=0;entryY=0.5;entryDx=0;entryDy=0;entryPerimeter=0;" edge="1" parent="WIyWlLk6GJQsqaUBKTNV-1" source="TZek9zEbQfjgXyomxSv3-2" target="TZek9zEbQfjgXyomxSv3-7">
          <mxGeometry relative="1" as="geometry" />
        </mxCell>
        <mxCell id="TZek9zEbQfjgXyomxSv3-11" value="Is Data Valid?" style="rhombus;whiteSpace=wrap;html=1;fillColor=#d5e8d4;strokeColor=#82b366;" vertex="1" parent="WIyWlLk6GJQsqaUBKTNV-1">
          <mxGeometry x="-190" y="-860" width="100" height="100" as="geometry" />
        </mxCell>
        <mxCell id="TZek9zEbQfjgXyomxSv3-12" style="edgeStyle=orthogonalEdgeStyle;rounded=0;orthogonalLoop=1;jettySize=auto;html=1;entryX=0.5;entryY=1;entryDx=0;entryDy=0;entryPerimeter=0;" edge="1" parent="WIyWlLk6GJQsqaUBKTNV-1" source="TZek9zEbQfjgXyomxSv3-11" target="LVA1VL4anGFoCZ9Vgksi-89">
          <mxGeometry relative="1" as="geometry" />
        </mxCell>
        <mxCell id="TZek9zEbQfjgXyomxSv3-13" value="Yes" style="edgeLabel;html=1;align=center;verticalAlign=middle;resizable=0;points=[];" vertex="1" connectable="0" parent="TZek9zEbQfjgXyomxSv3-12">
          <mxGeometry x="-0.0615" relative="1" as="geometry">
            <mxPoint as="offset" />
          </mxGeometry>
        </mxCell>
        <mxCell id="TZek9zEbQfjgXyomxSv3-14" style="edgeStyle=orthogonalEdgeStyle;rounded=0;orthogonalLoop=1;jettySize=auto;html=1;entryX=0.304;entryY=1.048;entryDx=0;entryDy=0;entryPerimeter=0;" edge="1" parent="WIyWlLk6GJQsqaUBKTNV-1" source="TZek9zEbQfjgXyomxSv3-11" target="LVA1VL4anGFoCZ9Vgksi-21">
          <mxGeometry relative="1" as="geometry">
            <Array as="points">
              <mxPoint x="10" y="-720" />
              <mxPoint x="474" y="-720" />
            </Array>
          </mxGeometry>
        </mxCell>
        <mxCell id="TZek9zEbQfjgXyomxSv3-15" value="No" style="edgeLabel;html=1;align=center;verticalAlign=middle;resizable=0;points=[];" vertex="1" connectable="0" parent="TZek9zEbQfjgXyomxSv3-14">
          <mxGeometry x="-0.4096" y="-1" relative="1" as="geometry">
            <mxPoint as="offset" />
          </mxGeometry>
        </mxCell>
        <mxCell id="TZek9zEbQfjgXyomxSv3-19" style="edgeStyle=orthogonalEdgeStyle;rounded=0;orthogonalLoop=1;jettySize=auto;html=1;entryX=0;entryY=0.5;entryDx=0;entryDy=0;" edge="1" parent="WIyWlLk6GJQsqaUBKTNV-1" source="TZek9zEbQfjgXyomxSv3-17" target="TZek9zEbQfjgXyomxSv3-18">
          <mxGeometry relative="1" as="geometry" />
        </mxCell>
        <mxCell id="TZek9zEbQfjgXyomxSv3-20" value="No" style="edgeLabel;html=1;align=center;verticalAlign=middle;resizable=0;points=[];" vertex="1" connectable="0" parent="TZek9zEbQfjgXyomxSv3-19">
          <mxGeometry x="-0.2582" y="1" relative="1" as="geometry">
            <mxPoint as="offset" />
          </mxGeometry>
        </mxCell>
        <mxCell id="TZek9zEbQfjgXyomxSv3-26" style="edgeStyle=orthogonalEdgeStyle;rounded=0;orthogonalLoop=1;jettySize=auto;html=1;entryX=0;entryY=0.5;entryDx=0;entryDy=0;fillColor=#e6d0de;gradientColor=#d5739d;strokeColor=#996185;" edge="1" parent="WIyWlLk6GJQsqaUBKTNV-1" source="TZek9zEbQfjgXyomxSv3-17" target="TZek9zEbQfjgXyomxSv3-25">
          <mxGeometry relative="1" as="geometry">
            <Array as="points">
              <mxPoint x="930" y="-470" />
              <mxPoint x="930" y="-510" />
              <mxPoint x="1047" y="-510" />
              <mxPoint x="1047" y="-650" />
            </Array>
          </mxGeometry>
        </mxCell>
        <mxCell id="TZek9zEbQfjgXyomxSv3-27" value="Yes" style="edgeLabel;html=1;align=center;verticalAlign=middle;resizable=0;points=[];" vertex="1" connectable="0" parent="TZek9zEbQfjgXyomxSv3-26">
          <mxGeometry x="0.65" y="2" relative="1" as="geometry">
            <mxPoint as="offset" />
          </mxGeometry>
        </mxCell>
        <mxCell id="TZek9zEbQfjgXyomxSv3-17" value="Make it throught the filter" style="rhombus;whiteSpace=wrap;html=1;fillColor=#d5e8d4;strokeColor=#82b366;" vertex="1" parent="WIyWlLk6GJQsqaUBKTNV-1">
          <mxGeometry x="809.9999999999999" y="-490" width="100" height="100" as="geometry" />
        </mxCell>
        <mxCell id="TZek9zEbQfjgXyomxSv3-18" value="Deleted" style="shape=hexagon;perimeter=hexagonPerimeter2;whiteSpace=wrap;html=1;fixedSize=1;fillColor=#f8cecc;strokeColor=#b85450;gradientColor=#ea6b66;" vertex="1" parent="WIyWlLk6GJQsqaUBKTNV-1">
          <mxGeometry x="1032.4499999999998" y="-480" width="120" height="80" as="geometry" />
        </mxCell>
        <mxCell id="TZek9zEbQfjgXyomxSv3-23" style="edgeStyle=orthogonalEdgeStyle;rounded=0;orthogonalLoop=1;jettySize=auto;html=1;exitX=0;exitY=0;exitDx=0;exitDy=0;entryX=0.5;entryY=1;entryDx=0;entryDy=0;entryPerimeter=0;fillColor=#d5e8d4;gradientColor=#97d077;strokeColor=#82b366;" edge="1" parent="WIyWlLk6GJQsqaUBKTNV-1" source="TZek9zEbQfjgXyomxSv3-17" target="LVA1VL4anGFoCZ9Vgksi-94">
          <mxGeometry relative="1" as="geometry" />
        </mxCell>
        <mxCell id="TZek9zEbQfjgXyomxSv3-24" value="Yes" style="edgeLabel;html=1;align=center;verticalAlign=middle;resizable=0;points=[];" vertex="1" connectable="0" parent="TZek9zEbQfjgXyomxSv3-23">
          <mxGeometry x="0.0807" relative="1" as="geometry">
            <mxPoint as="offset" />
          </mxGeometry>
        </mxCell>
        <mxCell id="TZek9zEbQfjgXyomxSv3-25" value="System Manager" style="whiteSpace=wrap;html=1;aspect=fixed;fillColor=#e1d5e7;strokeColor=#9673a6;" vertex="1" parent="WIyWlLk6GJQsqaUBKTNV-1">
          <mxGeometry x="1222" y="-690" width="80" height="80" as="geometry" />
        </mxCell>
        <mxCell id="TZek9zEbQfjgXyomxSv3-28" value="Is user admin?" style="rhombus;whiteSpace=wrap;html=1;fillColor=#d5e8d4;strokeColor=#82b366;" vertex="1" parent="WIyWlLk6GJQsqaUBKTNV-1">
          <mxGeometry x="1250" y="-954" width="100" height="100" as="geometry" />
        </mxCell>
        <mxCell id="TZek9zEbQfjgXyomxSv3-29" style="edgeStyle=orthogonalEdgeStyle;rounded=0;orthogonalLoop=1;jettySize=auto;html=1;entryX=0.097;entryY=0.373;entryDx=0;entryDy=0;entryPerimeter=0;fillColor=#fff2cc;gradientColor=#ffd966;strokeColor=#d6b656;" edge="1" parent="WIyWlLk6GJQsqaUBKTNV-1" source="LVA1VL4anGFoCZ9Vgksi-26" target="TZek9zEbQfjgXyomxSv3-28">
          <mxGeometry relative="1" as="geometry">
            <Array as="points">
              <mxPoint x="888" y="-1160" />
              <mxPoint x="1010" y="-1160" />
              <mxPoint x="1010" y="-1020" />
              <mxPoint x="1232" y="-1020" />
            </Array>
          </mxGeometry>
        </mxCell>
        <mxCell id="TZek9zEbQfjgXyomxSv3-32" value="Automatic&amp;nbsp;" style="edgeLabel;html=1;align=center;verticalAlign=middle;resizable=0;points=[];" vertex="1" connectable="0" parent="TZek9zEbQfjgXyomxSv3-29">
          <mxGeometry x="0.1623" y="-1" relative="1" as="geometry">
            <mxPoint as="offset" />
          </mxGeometry>
        </mxCell>
        <mxCell id="TZek9zEbQfjgXyomxSv3-30" style="edgeStyle=orthogonalEdgeStyle;rounded=0;orthogonalLoop=1;jettySize=auto;html=1;entryX=0.621;entryY=-0.002;entryDx=0;entryDy=0;entryPerimeter=0;" edge="1" parent="WIyWlLk6GJQsqaUBKTNV-1" source="TZek9zEbQfjgXyomxSv3-28" target="TZek9zEbQfjgXyomxSv3-25">
          <mxGeometry relative="1" as="geometry" />
        </mxCell>
        <mxCell id="TZek9zEbQfjgXyomxSv3-31" value="Yes" style="edgeLabel;html=1;align=center;verticalAlign=middle;resizable=0;points=[];" vertex="1" connectable="0" parent="TZek9zEbQfjgXyomxSv3-30">
          <mxGeometry x="-0.6479" y="1" relative="1" as="geometry">
            <mxPoint as="offset" />
          </mxGeometry>
        </mxCell>
      </root>
    </mxGraphModel>
  </diagram>
</mxfile>
